<?xml version="1.0" standalone="no"?>
<!DOCTYPE svg PUBLIC "-//W3C//DTD SVG 20010904//EN"
 "http://www.w3.org/TR/2001/REC-SVG-20010904/DTD/svg10.dtd">
<svg version="1.0" xmlns="http://www.w3.org/2000/svg"
 width="512.000000pt" height="512.000000pt" viewBox="0 0 512.000000 512.000000"
 preserveAspectRatio="xMidYMid meet">

<g transform="translate(0.000000,512.000000) scale(0.100000,-0.100000)"
fill="#ffffff" stroke="none">
<path d="M1280 4646 l-1275 -473 0 -1613 0 -1612 845 -314 c465 -172 848 -313
853 -314 4 0 6 96 5 212 l-3 213 -650 241 -650 240 -3 1258 -2 1258 22 -6 c13
-3 453 -165 978 -359 l955 -354 3 -402 2 -401 200 0 200 0 2 401 3 401 955
354 c525 195 965 357 978 360 l22 6 0 -785 0 -784 63 -23 c92 -33 172 -76 260
-136 l77 -55 -2 1108 -3 1107 -1275 473 c-701 260 -1277 472 -1280 472 -3 0
-579 -213 -1280 -473z m2184 -287 c839 -310 875 -325 846 -337 -101 -42 -1734
-642 -1748 -642 -9 0 -415 147 -901 327 -708 262 -879 329 -860 335 13 5 411
152 884 328 473 176 870 318 882 316 12 -2 416 -149 897 -327z"/>
<path d="M2120 1620 l0 -200 288 -1 287 0 -132 -127 -133 -128 0 -117 c0 -71
4 -117 10 -117 18 0 254 -113 350 -168 111 -63 235 -153 250 -182 22 -42 -34
-128 -105 -161 -37 -17 -72 -19 -427 -19 l-388 0 0 -200 0 -200 403 0 c371 0
410 2 482 20 211 54 372 217 426 431 29 112 23 193 -20 284 -52 112 -209 252
-426 380 -15 9 11 38 189 210 l206 199 0 148 0 148 -630 0 -630 0 0 -200z"/>
<path d="M3780 910 l0 -911 378 3 377 4 80 27 c115 38 199 91 290 182 91 91
143 174 183 290 l27 80 0 325 0 325 -27 80 c-40 116 -92 199 -183 290 -91 91
-175 144 -290 182 l-80 27 -377 4 -378 3 0 -911z m768 471 c70 -38 100 -69
140 -145 l27 -51 0 -275 0 -275 -27 -51 c-40 -76 -70 -107 -140 -145 -62 -33
-64 -34 -215 -37 l-153 -4 0 512 0 512 153 -4 c151 -3 153 -4 215 -37z"/>
</g>
</svg>
