<?xml version="1.0" standalone="no"?>
<!DOCTYPE svg PUBLIC "-//W3C//DTD SVG 20010904//EN"
 "http://www.w3.org/TR/2001/REC-SVG-20010904/DTD/svg10.dtd">
<svg version="1.0" xmlns="http://www.w3.org/2000/svg"
 width="512.000000pt" height="512.000000pt" viewBox="0 0 512.000000 512.000000"
 preserveAspectRatio="xMidYMid meet">

<g transform="translate(0.000000,512.000000) scale(0.100000,-0.100000)"
fill="#ffffff" stroke="none">
<path d="M2495 5101 c-26 -12 -144 -123 -342 -322 -253 -256 -303 -310 -312
-344 -19 -74 16 -148 90 -185 86 -44 113 -30 307 163 l162 162 0 -298 c0 -163
2 -297 4 -297 2 0 19 6 37 14 75 31 166 27 262 -9 16 -7 17 11 17 291 l0 298
168 -166 c183 -182 202 -193 282 -169 47 14 107 80 116 127 13 73 -2 92 -320
413 -353 355 -372 368 -471 322z"/>
<path d="M2152 3462 c-216 -126 -397 -233 -402 -238 -6 -6 134 -93 396 -243
370 -214 407 -233 430 -222 51 23 794 453 794 459 0 9 -784 462 -808 468 -10
2 -187 -95 -410 -224z"/>
<path d="M693 3280 c-45 -10 -642 -592 -672 -654 -25 -50 -26 -87 -6 -130 8
-17 154 -169 323 -338 253 -253 314 -308 347 -318 111 -33 222 71 200 187 -6
32 -32 64 -173 206 l-166 167 352 0 352 0 0 160 0 160 -352 0 -353 1 152 147
c84 81 161 163 173 182 66 113 -47 260 -177 230z"/>
<path d="M4363 3280 c-81 -19 -143 -109 -128 -187 6 -32 33 -65 173 -205 l166
-168 -357 0 -357 0 0 -160 0 -160 357 0 357 0 -166 -167 c-175 -178 -187 -196
-173 -270 9 -48 81 -119 130 -129 78 -14 90 -5 422 328 344 346 349 353 324
441 -11 35 -59 88 -314 345 -166 167 -313 309 -327 316 -37 19 -71 24 -107 16z"/>
<path d="M1570 2466 l0 -474 411 -236 c225 -130 412 -236 415 -236 2 0 4 213
4 473 l0 474 -410 236 c-225 131 -412 237 -415 237 -3 0 -5 -213 -5 -474z"/>
<path d="M3130 2706 l-405 -233 -3 -477 c-1 -262 0 -476 2 -476 4 0 127 70
694 397 63 36 116 71 118 77 2 6 3 221 2 478 l-3 468 -405 -234z"/>
<path d="M2400 843 l0 -297 -167 166 c-190 188 -206 197 -291 162 -89 -37
-131 -140 -89 -219 8 -16 152 -166 319 -332 335 -333 343 -339 430 -314 37 11
90 60 356 324 341 341 344 345 321 429 -22 85 -113 139 -194 117 -32 -9 -74
-45 -202 -172 l-163 -161 0 297 c0 164 -4 297 -9 297 -5 0 -26 -7 -47 -16 -50
-22 -166 -21 -216 0 -21 9 -40 16 -43 16 -3 0 -5 -134 -5 -297z"/>
</g>
</svg>
