<?xml version="1.0" standalone="no"?>
<!DOCTYPE svg PUBLIC "-//W3C//DTD SVG 20010904//EN"
 "http://www.w3.org/TR/2001/REC-SVG-20010904/DTD/svg10.dtd">
<svg version="1.0" xmlns="http://www.w3.org/2000/svg"
 width="512.000000pt" height="512.000000pt" viewBox="0 0 512.000000 512.000000"
 preserveAspectRatio="xMidYMid meet">

<g transform="translate(0.000000,512.000000) scale(0.100000,-0.100000)"
fill="#ffffff" stroke="none">
<path d="M2455 5107 c-370 -95 -662 -590 -820 -1392 -21 -104 -39 -192 -41
-193 -1 -2 -62 -15 -136 -28 -679 -125 -1176 -363 -1363 -654 -70 -109 -89
-169 -89 -290 0 -90 4 -115 27 -173 89 -229 331 -423 714 -576 302 -120 714
-212 1141 -257 94 -10 172 -21 172 -25 0 -4 -20 -23 -44 -42 -56 -46 -80 -96
-73 -153 11 -105 124 -166 214 -116 18 9 99 81 181 160 l150 142 149 0 c144 0
407 13 527 26 l59 6 -7 -38 c-103 -575 -330 -1064 -545 -1173 -68 -35 -120
-37 -185 -8 -106 49 -198 155 -303 352 -53 100 -63 112 -106 133 -63 32 -118
24 -168 -27 -53 -53 -59 -101 -23 -183 130 -292 329 -508 531 -574 86 -28 238
-26 318 6 261 101 470 384 631 854 51 150 123 432 150 589 16 93 21 108 39
112 11 2 72 14 135 25 323 59 642 161 878 279 272 137 445 299 519 488 23 58
27 83 27 173 -1 87 -5 116 -25 170 -99 262 -398 477 -889 640 -100 33 -134 40
-167 35 -84 -12 -145 -105 -123 -186 17 -60 63 -93 190 -134 282 -93 488 -202
611 -325 74 -74 103 -129 103 -200 1 -178 -261 -375 -689 -518 -186 -62 -527
-143 -542 -129 -3 3 0 70 6 149 50 611 2 1310 -125 1838 -31 129 -66 257 -81
296 -3 9 16 5 59 -12 80 -32 148 -35 186 -7 87 64 96 170 20 240 -12 11 -112
55 -222 96 -109 42 -199 77 -201 79 -1 2 -21 37 -45 78 -124 217 -280 368
-445 430 -73 27 -207 35 -280 17z m216 -317 c81 -42 194 -172 257 -296 l21
-42 -75 -173 c-41 -96 -79 -190 -85 -209 -24 -80 35 -170 120 -185 33 -5 51
-2 89 17 40 19 52 33 78 87 17 35 34 60 36 55 12 -19 78 -296 102 -424 30
-157 60 -384 77 -590 24 -272 15 -846 -18 -1127 l-6 -51 -46 -6 c-119 -16
-295 -27 -501 -32 l-225 -5 -139 161 c-143 167 -172 190 -238 190 -34 0 -93
-30 -115 -59 -7 -9 -17 -33 -23 -53 -16 -55 2 -107 56 -167 53 -59 59 -56 -97
-41 -804 81 -1465 332 -1610 611 -31 60 -31 138 0 198 76 147 315 297 658 415
132 45 360 104 496 129 l79 15 -6 -47 c-14 -107 -26 -360 -26 -552 0 -197 1
-207 23 -239 36 -54 71 -74 127 -74 54 0 87 18 124 68 20 26 21 46 27 294 7
268 26 561 39 581 15 26 509 56 787 49 161 -5 187 -3 222 13 53 23 81 70 81
132 0 85 -42 131 -137 149 -69 13 -606 5 -787 -12 -65 -6 -120 -9 -122 -7 -6
6 53 282 87 399 131 466 310 766 504 845 40 17 114 9 166 -17z"/>
</g>
</svg>
