<?xml version="1.0" standalone="no"?>
<!DOCTYPE svg PUBLIC "-//W3C//DTD SVG 20010904//EN"
 "http://www.w3.org/TR/2001/REC-SVG-20010904/DTD/svg10.dtd">
<svg version="1.0" xmlns="http://www.w3.org/2000/svg"
 width="512.000000pt" height="512.000000pt" viewBox="0 0 512.000000 512.000000"
 preserveAspectRatio="xMidYMid meet">

<g transform="translate(0.000000,512.000000) scale(0.100000,-0.100000)"
fill="#ffffff" stroke="none">
<path d="M78 5099 c-23 -12 -46 -35 -58 -59 -19 -37 -20 -58 -20 -320 0 -262
1 -283 20 -320 23 -45 80 -80 130 -80 50 0 107 35 130 80 18 35 20 59 20 230
l0 190 190 0 c171 0 195 2 230 20 45 23 80 80 80 130 0 50 -35 107 -80 130
-37 19 -58 20 -322 20 -262 -1 -286 -2 -320 -21z"/>
<path d="M1870 5109 c-70 -28 -110 -106 -90 -178 12 -47 66 -98 112 -106 18
-3 331 -5 695 -3 650 3 662 3 689 24 50 37 68 70 68 124 0 54 -18 87 -68 124
-27 21 -38 21 -704 23 -435 1 -686 -2 -702 -8z"/>
<path d="M4398 5099 c-43 -22 -78 -81 -78 -129 0 -50 35 -107 80 -130 35 -18
59 -20 230 -20 l190 0 0 -190 c0 -171 2 -195 20 -230 23 -45 80 -80 130 -80
50 0 107 35 130 80 19 37 20 58 20 320 0 262 -1 283 -20 320 -13 26 -34 47
-60 60 -37 19 -58 20 -322 20 -262 -1 -286 -2 -320 -21z"/>
<path d="M3490 4389 c-127 -51 -125 -230 3 -278 16 -6 106 -11 210 -11 l182 0
-521 -522 c-287 -288 -529 -534 -538 -548 -21 -31 -21 -114 0 -148 33 -57 110
-85 181 -68 19 5 197 176 560 538 l532 531 3 -196 c3 -179 5 -198 24 -223 37
-50 70 -68 124 -68 54 0 87 18 124 68 20 27 21 39 21 434 0 405 0 407 -22 438
-45 63 -50 64 -475 63 -229 0 -393 -4 -408 -10z"/>
<path d="M106 3340 c-38 -12 -75 -47 -92 -87 -12 -27 -14 -292 -14 -1583 0
-1535 0 -1551 20 -1590 13 -26 34 -47 60 -60 39 -20 51 -20 1604 -18 1563 3
1565 3 1592 24 50 37 68 70 68 124 0 54 -18 87 -68 124 -26 20 -42 21 -357 24
l-329 3 -2 1094 c-3 1087 -3 1094 -24 1121 -11 15 -33 37 -48 48 -27 21 -34
21 -1121 24 l-1094 2 -3 329 c-3 315 -4 331 -24 357 -43 58 -107 83 -168 64z"/>
<path d="M4924 3339 c-41 -12 -91 -69 -99 -111 -3 -18 -5 -331 -3 -695 3 -650
3 -662 24 -689 37 -50 70 -68 124 -68 54 0 87 18 124 68 21 27 21 36 21 716 0
680 0 689 -21 716 -44 59 -107 83 -170 63z"/>
<path d="M4898 779 c-69 -36 -78 -70 -78 -289 l0 -190 -191 0 c-155 0 -197 -3
-225 -16 -107 -51 -109 -210 -4 -264 37 -19 58 -20 320 -20 262 0 283 1 320
20 26 13 47 34 60 60 19 37 20 58 20 320 0 262 -1 283 -20 320 -37 73 -127 99
-202 59z"/>
</g>
</svg>
